<?xml version="1.0" standalone="no"?>
<!DOCTYPE svg PUBLIC "-//W3C//DTD SVG 20010904//EN"
 "http://www.w3.org/TR/2001/REC-SVG-20010904/DTD/svg10.dtd">
<svg version="1.0" xmlns="http://www.w3.org/2000/svg"
 width="500.000000pt" height="500.000000pt" viewBox="0 0 500.000000 500.000000"
 preserveAspectRatio="xMidYMid meet">

<g transform="translate(0.000000,500.000000) scale(0.100000,-0.100000)"
fill="#000000" stroke="none">
<path d="M2473 3749 c-116 -19 -212 -92 -261 -197 -38 -81 -43 -203 -11 -287
31 -84 113 -164 197 -195 61 -22 62 -24 62 -59 l-1 -36 -489 -250 c-462 -236
-491 -252 -501 -283 -6 -18 -22 -46 -36 -63 -24 -28 -25 -31 -8 -49 26 -29 58
-8 84 54 31 76 73 121 144 155 75 36 148 46 221 31 51 -10 58 -9 108 16 29 15
56 31 59 37 4 5 6 33 4 61 -1 28 0 57 3 64 3 9 40 12 138 12 l134 0 100 50
c55 27 103 50 107 50 5 0 179 -87 387 -194 l379 -194 42 32 c23 17 50 36 60
42 16 9 -49 45 -391 220 l-409 210 -3 82 c-3 95 -8 101 -104 121 -113 24 -178
103 -178 217 1 133 91 224 221 224 36 0 65 -8 99 -26 58 -31 86 -67 102 -131
15 -60 34 -83 67 -83 55 0 75 37 61 111 -32 170 -209 288 -387 258z"/>
<path d="M3870 2695 c0 -58 2 -65 20 -65 19 0 20 -7 20 -245 0 -238 -1 -245
-20 -245 -18 0 -20 -7 -20 -65 l0 -65 130 0 130 0 0 65 c0 52 -3 65 -16 65
-12 0 -14 10 -12 47 4 65 27 68 67 9 35 -51 37 -56 16 -56 -12 0 -15 -14 -15
-65 l0 -65 145 0 145 0 0 65 c0 62 -1 65 -24 65 -20 0 -38 19 -91 96 -37 52
-65 97 -63 98 47 35 72 46 102 46 l36 0 0 65 0 65 -140 0 -140 0 0 -64 0 -65
33 -3 32 -3 -50 -32 -50 -32 -3 224 -2 225 -115 0 -115 0 0 -65z"/>
<path d="M828 2704 c-5 -4 -8 -34 -8 -66 0 -58 0 -58 30 -58 l30 0 0 -220 0
-220 -30 0 -30 0 0 -65 0 -65 165 0 165 0 0 65 0 65 -30 0 -30 0 0 79 0 79 36
-8 c19 -5 38 -11 41 -13 9 -10 23 -82 23 -123 0 -46 28 -95 73 -128 41 -30
174 -31 207 -1 32 29 47 63 55 128 l7 57 -36 0 c-32 0 -36 -3 -36 -25 0 -23
-24 -45 -36 -33 -2 3 -9 30 -14 61 -11 70 -31 100 -81 125 -38 19 -39 20 -14
26 40 10 94 64 104 104 6 21 6 55 2 77 -14 71 -36 101 -98 132 -57 28 -61 28
-273 31 -118 2 -218 1 -222 -4z m372 -149 c41 -37 32 -112 -16 -134 -14 -6
-40 -11 -59 -11 l-35 0 0 86 0 87 45 -6 c25 -2 54 -12 65 -22z"/>
<path d="M2100 2645 c0 -65 5 -72 43 -66 4 0 7 -98 7 -219 l0 -220 -25 0 c-24
0 -25 -2 -25 -65 l0 -65 280 0 280 0 0 130 0 130 -85 0 -85 0 0 -65 0 -65 -65
0 -65 0 2 218 3 217 28 3 c28 3 28 4 25 65 l-3 62 -157 3 -158 3 0 -66z"/>
<path d="M1706 2505 c-54 -19 -107 -64 -136 -116 -34 -61 -36 -193 -3 -255 67
-126 224 -175 381 -120 40 14 112 57 111 66 0 3 -18 25 -39 49 l-40 43 -43
-21 c-63 -30 -140 -29 -172 4 -14 13 -25 31 -25 40 0 13 22 15 154 15 174 0
166 -4 166 84 0 63 -36 142 -80 175 -68 50 -190 66 -274 36z m152 -132 c11
-10 23 -28 27 -40 6 -22 4 -23 -69 -23 -85 0 -96 11 -51 55 28 29 65 32 93 8z"/>
<path d="M2884 2509 c-61 -18 -127 -71 -156 -128 -36 -69 -39 -171 -7 -238 91
-188 406 -193 498 -7 28 55 33 143 13 213 -19 62 -92 132 -161 154 -57 18
-136 21 -187 6z m121 -136 c37 -37 47 -134 20 -198 -26 -63 -83 -60 -109 5
-45 113 23 260 89 193z"/>
<path d="M3433 2499 c-62 -24 -137 -101 -153 -157 -40 -145 32 -288 164 -327
58 -17 145 -19 198 -5 91 26 165 116 175 213 21 208 -182 354 -384 276z m147
-129 c26 -26 33 -58 28 -135 -4 -71 -25 -105 -64 -105 -51 0 -86 99 -64 182
20 75 60 98 100 58z"/>
<path d="M727 2068 c-27 -36 -47 -89 -47 -122 0 -75 61 -164 135 -197 38 -18
116 -19 1711 -19 l1670 0 53 26 c38 19 62 40 82 72 28 45 46 103 36 119 -3 4
-31 6 -64 5 -54 -3 -59 -6 -73 -35 -8 -18 -27 -38 -41 -45 -21 -9 -374 -12
-1670 -12 -1809 0 -1678 -5 -1700 60 -6 15 -19 30 -30 33 -16 4 -19 14 -19 76
0 39 -4 71 -9 71 -6 0 -21 -15 -34 -32z"/>
<path d="M1910 1541 c-21 -6 -22 -8 -7 -14 14 -5 17 -19 17 -86 0 -59 -4 -84
-16 -95 -14 -15 -12 -16 27 -16 35 0 40 2 30 14 -7 8 -11 32 -9 53 3 33 7 38
30 41 22 3 29 -2 34 -23 3 -14 4 -39 0 -55 -5 -28 -4 -30 27 -29 17 0 26 3 20
6 -8 3 -13 24 -13 52 0 63 -26 91 -71 74 l-29 -11 0 49 c0 27 -3 49 -7 48 -5
-1 -19 -4 -33 -8z"/>
<path d="M2144 1519 c-10 -17 13 -36 27 -22 12 12 4 33 -11 33 -5 0 -12 -5
-16 -11z"/>
<path d="M1353 1509 c14 -8 17 -24 17 -84 0 -60 -3 -76 -17 -84 -14 -8 -7 -10
32 -10 39 0 46 2 33 10 -12 7 -18 22 -18 46 0 34 1 35 30 30 27 -6 30 -4 30
20 0 21 -3 24 -12 15 -7 -7 -20 -12 -30 -12 -13 0 -18 8 -18 30 0 26 4 30 28
30 15 0 33 -5 40 -12 9 -9 12 -7 12 10 0 21 -4 22 -72 22 -55 -1 -69 -3 -55
-11z"/>
<path d="M2826 1504 c-9 -8 -16 -21 -16 -27 0 -24 31 -56 65 -67 27 -9 35 -17
35 -36 0 -20 -5 -24 -29 -24 -18 0 -35 8 -44 20 -15 22 -27 17 -27 -11 0 -21
20 -29 71 -29 30 0 42 5 55 25 23 34 11 58 -44 86 -55 28 -62 53 -14 57 18 2
32 -1 32 -7 0 -6 5 -11 10 -11 6 0 10 9 10 20 0 17 -7 20 -44 20 -27 0 -51 -6
-60 -16z"/>
<path d="M3030 1492 c0 -10 -5 -23 -12 -30 -9 -9 -9 -12 0 -12 8 0 12 -20 12
-60 l0 -60 30 0 c17 0 30 5 30 10 0 6 -7 10 -15 10 -11 0 -15 12 -15 50 0 38
4 50 15 50 8 0 15 5 15 10 0 6 -7 10 -15 10 -8 0 -15 9 -15 20 0 11 -7 20 -15
20 -8 0 -15 -8 -15 -18z"/>
<path d="M1563 1463 c-7 -2 -13 -11 -13 -19 0 -17 5 -17 30 -2 16 10 23 10 37
-4 14 -14 14 -18 2 -21 -71 -20 -74 -22 -74 -52 l0 -30 70 -2 c39 -1 64 1 58
4 -8 3 -13 24 -13 53 0 31 -6 54 -16 64 -15 15 -55 20 -81 9z m60 -69 c10 -10
-12 -44 -28 -44 -22 0 -27 17 -9 34 17 17 27 20 37 10z"/>
<path d="M1750 1456 c-21 -26 -8 -59 28 -68 18 -5 32 -15 32 -23 0 -21 -47
-19 -59 3 -9 14 -10 13 -11 -10 0 -26 3 -28 40 -28 70 0 78 58 12 86 -28 11
-33 17 -24 26 10 10 17 10 32 0 25 -15 30 -15 30 2 0 27 -60 36 -80 12z"/>
<path d="M2295 1458 c-27 -15 -35 -28 -35 -58 0 -43 26 -70 69 -70 70 0 99 77
45 119 -30 24 -50 26 -79 9z m61 -33 c21 -32 6 -75 -25 -75 -37 0 -53 56 -25
84 21 22 31 20 50 -9z"/>
<path d="M2485 1460 c-24 -4 -26 -7 -12 -12 22 -9 24 -80 1 -102 -14 -15 -12
-16 27 -16 35 0 40 2 30 14 -7 8 -11 32 -9 53 3 33 7 38 29 41 21 2 28 -2 33
-21 3 -14 3 -39 0 -56 -6 -30 -5 -31 27 -30 19 0 28 3 22 6 -8 3 -13 22 -13
47 0 23 -7 52 -16 64 -16 23 -58 30 -70 11 -3 -6 -9 -7 -13 -2 -3 5 -19 6 -36
3z"/>
<path d="M3182 1453 c-51 -43 -24 -123 41 -123 38 0 50 7 66 37 34 66 -51 133
-107 86z m69 -27 c17 -37 4 -76 -25 -76 -13 0 -27 7 -30 16 -24 61 29 118 55
60z"/>
<path d="M3426 1462 c-3 -5 -20 -7 -38 -4 -27 4 -31 2 -20 -9 15 -17 16 -91 0
-107 -9 -9 -3 -12 27 -12 30 0 36 3 27 12 -16 16 -15 73 2 87 7 6 21 9 30 5
12 -4 16 0 16 15 0 14 -6 21 -19 21 -11 0 -22 -4 -25 -8z"/>
<path d="M3555 1445 c-50 -49 -17 -119 52 -113 20 2 38 8 40 14 2 7 -8 9 -28
6 -24 -3 -36 0 -46 14 -21 29 -16 34 37 34 56 0 65 15 30 50 -27 27 -56 25
-85 -5z m65 -10 c11 -13 8 -15 -19 -15 -31 0 -42 14 -18 23 20 9 24 8 37 -8z"/>
<path d="M2133 1449 c22 -13 23 -81 1 -103 -14 -15 -11 -16 28 -15 24 0 37 3
31 6 -9 3 -13 26 -13 64 l0 59 -32 0 c-27 -1 -30 -2 -15 -11z"/>
</g>
</svg>
